<?xml version="1.0" encoding="UTF-8" standalone="no"?>
<svg width="193px" height="216px" viewBox="0 0 193 216" version="1.1" xmlns="http://www.w3.org/2000/svg" xmlns:xlink="http://www.w3.org/1999/xlink">
    <!-- Generator: Sketch 3.7 (28169) - http://www.bohemiancoding.com/sketch -->
    <title>Slice 1</title>
    <desc>Created with Sketch.</desc>
    <defs></defs>
    <g id="Page-1" stroke="none" stroke-width="1" fill="none" fill-rule="evenodd">
        <g id="New_Walmart_Logo" fill="#FFC220">
            <g id="svg2">
                <g id="layer1" transform="translate(0.045860, 0.468030)">
                    <path d="M96.1740404,72.8072177 C101.193573,72.8072177 105.326114,70.196098 105.884206,66.8242293 L110.840604,10.7757861 C110.840604,5.23481045 104.349428,0.686944678 96.1906414,0.686944678 C88.03847,0.686944678 81.5539594,5.23481078 81.5539594,10.7757861 L86.5070376,66.8242293 C87.0518489,70.1960977 91.1843899,72.8072177 96.1906414,72.8072177 L96.1740404,72.8072177" id="path2974"></path>
                    <path d="M65.880803,90.3141701 C68.398882,85.9723066 68.209506,81.0923225 65.5552493,78.9232155 L19.4859172,46.6068061 C14.6956033,43.8330744 7.51345231,47.1716903 3.43737922,54.2406515 C-0.651999775,61.2998802 0.0722016857,69.1863622 4.84923526,71.9600943 L55.8617104,95.7124038 C59.0508178,96.8948894 63.3992964,94.6195372 65.8974545,90.2809176 L65.8808535,90.3141701" id="path2976"></path>
                    <path d="M126.49384,90.2841619 C129.008599,94.6227815 133.333811,96.8981337 136.526238,95.7156481 L187.538713,71.9633385 C192.345628,69.1896068 193.029962,61.3031245 188.97713,54.2438957 C184.881124,47.1814227 177.685692,43.835913 172.908659,46.6100504 L126.835969,78.9264598 C124.201633,81.0923225 124.005642,85.9755505 126.510415,90.3174144 L126.490494,90.2841619" id="path2978"></path>
                    <path d="M96.1740404,142.821239 C101.193573,142.821239 105.326114,145.409244 105.884206,148.784357 L110.840604,204.826312 C110.840604,210.383914 104.349428,214.921642 96.1906414,214.921642 C88.03847,214.921642 81.5539594,210.383914 81.5539594,204.826312 L86.5070376,148.784357 C87.0518489,145.409244 91.1843899,142.821239 96.1906414,142.821239 L96.1740404,142.821239" id="path2980"></path>
                    <path d="M126.49384,125.311043 C129.008599,120.959041 133.333811,118.703559 136.526238,119.899427 L187.538713,143.63511 C192.345628,146.412492 193.029962,154.305462 188.97713,161.371179 C184.881124,168.410538 177.685692,171.76578 172.908659,168.995292 L126.835969,136.708891 C124.201633,134.526402 124.005642,129.639524 126.510415,125.30131 L126.490494,125.30131" id="path2982"></path>
                    <path d="M65.880803,125.304555 C68.398882,129.63993 68.209506,134.526402 65.5552493,136.712135 L19.4859172,168.998537 C14.6956033,171.769024 7.51345231,168.413782 3.43737922,161.374424 C-0.651999775,154.308707 0.0722016857,146.415331 4.84923526,143.638355 L55.8617104,119.902671 C59.0508178,118.706803 63.3992964,120.962285 65.8974545,125.314287 L65.8808535,125.314287" id="path2984"></path>
                </g>
            </g>
        </g>
    </g>
</svg>